<svg width="80" height="88" viewBox="0 0 80 88" fill="none" xmlns="http://www.w3.org/2000/svg">
<path fill-rule="evenodd" clip-rule="evenodd" d="M9 4C9 1.79086 10.7909 0 13 0C15.2091 0 17 1.79086 17 4V8H27V4C27 1.79086 28.7909 0 31 0C33.2091 0 35 1.79086 35 4V8H45V4C45 1.79086 46.7909 0 49 0C51.2091 0 53 1.79086 53 4V8H63V4C63 1.79086 64.7909 0 67 0C69.2091 0 71 1.79086 71 4V8H76C78.2091 8 80 9.79086 80 12V84C80 86.2091 78.2091 88 76 88H4C1.79086 88 0 86.2091 0 84V12C0 9.79086 1.79086 8 4 8H9V4Z" fill="#2D4E7E"/>
<rect x="24" y="40" width="6" height="16" rx="3" fill="white"/>
<rect x="50" y="40" width="6" height="16" rx="3" fill="white"/>
</svg>
