<svg width="64" height="72" viewBox="0 0 64 72" fill="none" xmlns="http://www.w3.org/2000/svg">
<path fill-rule="evenodd" clip-rule="evenodd" d="M12 0C9.23858 0 7 2.23858 7 5V8H4C1.79086 8 0 9.79086 0 12V68C0 70.2091 1.79086 72 4 72H60C62.2091 72 64 70.2091 64 68V12C64 9.79086 62.2091 8 60 8H57V5C57 2.23858 54.7614 0 52 0C49.2386 0 47 2.23858 47 5V8H37V5C37 2.23858 34.7614 0 32 0C29.2386 0 27 2.23858 27 5V8H17V5C17 2.23858 14.7614 0 12 0Z" fill="#265BFF"/>
<path d="M15 33C15 30.2386 17.2386 28 20 28C22.7614 28 25 30.2386 25 33V42C25 45.3137 22.3137 48 19 48H15V33Z" fill="white"/>
<rect x="16" y="34" width="8" height="8" rx="4" fill="#292A2B"/>
<rect x="13" y="44" width="7" height="4" rx="2" fill="white"/>
<path d="M39 33C39 30.2386 41.2386 28 44 28C46.7614 28 49 30.2386 49 33V47C49 47.5523 48.5523 48 48 48H45C41.6863 48 39 45.3137 39 42V33Z" fill="white"/>
<rect x="40" y="34" width="8" height="8" rx="4" fill="#292A2B"/>
<rect x="44" y="44" width="7" height="4" rx="2" fill="white"/>
</svg>
