<svg width="90" height="84" viewBox="0 0 90 84" fill="none" xmlns="http://www.w3.org/2000/svg">
<path fill-rule="evenodd" clip-rule="evenodd" d="M44.3077 0C19.8372 0 0 19.8372 0 44.3077C0 55.1835 8.81655 64 19.6923 64L30 64C30 75.0457 38.9543 84 50 84C71.7469 84 89.4405 66.6455 89.987 45.0302C89.9956 44.7904 90 44.5496 90 44.3077C90 44.2551 89.9999 44.2025 89.9997 44.1499C89.9999 44.1 90 44.05 90 44H89.999C89.8335 19.6712 70.0601 0 45.6923 0H44.3077Z" fill="#2D4E7E"/>
<rect x="29" y="32" width="6" height="16" rx="3" fill="white"/>
<rect x="55" y="32" width="6" height="16" rx="3" fill="white"/>
</svg>
