<svg width="24" height="24" viewBox="0 0 24 24" fill="none" xmlns="http://www.w3.org/2000/svg">
<path fill-rule="evenodd" clip-rule="evenodd" d="M12.886 20.7111C12.4933 21.0963 11.8568 21.0963 11.4641 20.7111L3.36793 12.7694C3.3427 12.749 3.31825 12.7273 3.29468 12.7042C2.90177 12.3194 2.90177 11.6954 3.29468 11.3106L11.4844 3.28863C11.8773 2.90377 12.5143 2.90377 12.9072 3.28863C13.3001 3.67349 13.3001 4.29747 12.9072 4.68233L6.40109 11.0552L20.0055 11.0552C20.5548 11.0552 21 11.5004 21 12.0496C21 12.5989 20.5548 13.0441 20.0055 13.0441L6.4917 13.0441L12.886 19.3164C13.2786 19.7016 13.2786 20.326 12.886 20.7111Z" fill="#363A3C"/>
</svg>
